<?xml version="1.0" encoding="UTF-8" standalone="no"?>
<svg
   version="1.1"
   viewBox="0 0 512 512"
   width="512.0pt"
   height="512.0pt"
   id="svg94859"
   xmlns="http://www.w3.org/2000/svg"
   xmlns:svg="http://www.w3.org/2000/svg">
  <defs
     id="defs94863" />
  <path
     d="M 143.99 26.86 C 159.69 25.79 175.62 30.41 188.32 39.70 C 199.47 47.75 208.04 59.26 212.61 72.24 C 217.03 84.82 217.76 98.58 214.43 111.51 C 210.68 126.78 201.44 140.46 188.82 149.82 C 199.70 168.57 210.64 187.29 221.53 206.04 C 239.87 200.39 260.12 205.46 273.69 218.97 C 297.89 194.73 322.16 170.56 346.32 146.29 C 343.55 140.88 341.67 135.14 341.42 129.02 C 340.46 113.69 349.13 98.72 362.83 91.83 C 376.02 84.93 392.75 86.39 404.56 95.44 C 416.08 104.05 422.07 118.81 419.76 133.03 C 417.53 148.23 405.88 161.19 391.01 165.03 C 380.96 167.78 370.53 166.17 361.35 161.42 C 336.19 186.75 310.84 211.92 285.64 237.22 C 287.54 242.68 288.72 248.07 289.02 253.86 C 316.33 253.89 343.65 253.85 370.97 253.87 C 373.85 235.87 384.01 219.39 398.93 208.89 C 411.66 199.84 427.44 195.37 443.03 196.48 C 458.42 197.43 473.32 203.88 484.62 214.35 C 495.87 224.72 503.49 238.83 505.78 253.98 C 507.64 264.97 506.46 276.31 502.88 286.82 C 497.74 301.73 487.33 314.69 473.82 322.83 C 463.38 329.25 451.23 332.63 438.99 332.79 C 422.34 332.88 405.77 326.79 393.31 315.70 C 381.42 305.32 373.47 290.78 370.99 275.20 C 342.48 275.21 313.98 275.19 285.47 275.21 C 280.85 286.21 273.50 294.90 263.28 301.09 C 272.85 336.18 282.45 371.26 292.06 406.34 C 297.47 406.42 302.77 407.13 307.82 409.17 C 321.08 414.31 330.81 426.84 332.46 440.98 C 334.40 455.73 327.42 470.82 314.92 478.88 C 302.14 487.36 284.80 487.44 271.97 479.01 C 258.75 470.63 251.65 454.45 254.49 439.03 C 256.31 428.23 262.73 418.95 271.68 412.77 C 262.13 377.82 252.58 342.87 243.01 307.93 C 229.56 309.30 217.18 306.06 206.12 298.35 C 183.40 311.17 160.71 324.02 138.02 336.88 C 143.94 353.91 142.93 372.88 135.04 389.10 C 127.52 404.80 113.82 417.32 97.50 423.39 C 85.42 427.86 72.15 428.96 59.54 426.22 C 45.70 423.32 32.91 416.04 23.37 405.61 C 12.67 394.06 6.23 378.73 5.48 363.00 C 4.63 347.55 9.22 331.90 18.38 319.41 C 26.28 308.46 37.52 299.98 50.23 295.38 C 61.29 291.32 73.38 290.24 84.99 292.21 C 101.97 294.94 117.43 304.46 127.87 318.08 C 149.07 306.09 170.26 294.11 191.45 282.10 C 187.59 274.99 185.41 268.04 184.66 259.96 C 152.76 251.11 120.72 242.57 88.78 233.82 C 86.18 238.11 83.06 242.01 79.11 245.14 C 68.31 253.97 52.92 256.29 39.97 251.09 C 25.26 245.43 15.06 230.78 14.97 214.99 C 14.57 199.14 24.46 184.06 39.12 178.04 C 52.99 172.09 69.75 174.93 80.86 185.14 C 88.80 192.26 93.39 202.46 93.88 213.08 C 125.08 221.59 156.29 230.10 187.52 238.54 C 190.70 229.84 195.80 222.37 202.82 216.32 C 191.85 197.46 180.88 178.59 169.88 159.74 C 153.21 165.10 135.05 164.20 119.21 156.64 C 105.04 150.01 93.34 138.37 86.64 124.22 C 80.55 111.49 78.63 96.88 81.10 82.99 C 83.65 68.22 91.31 54.45 102.44 44.41 C 113.79 34.05 128.65 27.78 143.99 26.86 Z"
     fill="#010101"
     id="path94843"
     style="fill:#2b8a3e;fill-opacity:1" />
  <path
     d="M 139.49 48.86 C 151.18 46.62 163.58 48.95 173.58 55.43 C 189.00 65.21 197.57 83.96 194.63 102.03 C 192.15 119.13 179.66 134.00 163.24 139.38 C 150.78 143.64 136.69 142.33 125.26 135.78 C 115.75 130.47 108.21 121.70 104.38 111.51 C 100.73 101.90 100.41 91.06 103.39 81.23 C 108.34 64.78 122.58 51.96 139.49 48.86 Z"
     fill="#ffffff"
     id="path94845"
     style="fill:#ffffff;fill-opacity:1" />
  <path
     d="M 375.47 109.60 C 381.68 107.71 388.54 109.27 393.24 113.75 C 398.59 118.71 400.37 126.77 397.67 133.54 C 394.77 141.04 386.99 145.83 378.98 144.96 C 370.63 144.20 363.68 137.36 362.80 129.02 C 361.70 120.46 367.24 112.07 375.47 109.60 Z"
     fill="#ffffff"
     id="path94847"
     style="fill:#ffffff;fill-opacity:1" />
  <path
     d="M 50.49 196.69 C 56.79 195.29 63.48 197.42 67.80 202.20 C 73.00 207.82 74.02 216.57 70.22 223.22 C 66.35 230.29 57.84 234.02 50.01 231.97 C 41.89 230.04 36.00 222.32 36.28 213.97 C 36.38 205.75 42.46 198.40 50.49 196.69 Z"
     fill="#ffffff"
     id="path94849"
     style="fill:#ffffff;fill-opacity:1" />
  <path
     d="M 428.49 218.67 C 443.21 215.48 459.00 219.68 470.06 229.93 C 481.62 240.39 487.31 256.65 484.70 272.03 C 482.80 284.03 476.04 295.07 466.25 302.26 C 456.30 309.70 443.22 312.90 430.97 310.83 C 416.72 308.62 403.97 299.54 397.14 286.86 C 390.77 275.22 389.75 260.93 394.31 248.48 C 399.70 233.49 412.92 221.99 428.49 218.67 Z"
     fill="#ffffff"
     id="path94851"
     style="fill:#ffffff;fill-opacity:1" />
  <path
     d="M 230.49 225.72 C 239.22 223.93 248.50 225.97 255.56 231.43 C 266.04 239.31 270.37 253.56 266.06 265.97 C 261.63 279.31 248.00 288.22 233.98 286.77 C 218.69 285.58 206.20 272.32 205.91 256.99 C 205.26 242.18 215.99 228.63 230.49 225.72 Z"
     fill="#ffffff"
     id="path94853"
     style="fill:#ffffff;fill-opacity:1" />
  <path
     d="M 63.49 313.66 C 75.35 311.07 88.10 313.13 98.38 319.63 C 107.96 325.56 115.20 335.00 118.46 345.78 C 123.51 361.92 119.06 380.17 107.18 392.18 C 94.77 405.14 75.11 409.82 58.20 403.75 C 45.53 399.41 35.06 389.43 30.09 376.99 C 26.21 367.44 25.68 356.67 28.43 346.74 C 32.98 330.27 46.80 317.26 63.49 313.66 Z"
     fill="#ffffff"
     id="path94855"
     style="fill:#ffffff;fill-opacity:1" />
  <path
     d="M 287.50 428.70 C 293.93 426.51 301.23 428.14 306.05 432.95 C 311.69 438.41 313.07 447.30 309.40 454.24 C 305.81 461.25 297.77 465.16 290.03 463.69 C 282.01 462.27 275.67 455.20 275.25 447.04 C 274.65 438.97 279.83 431.24 287.50 428.70 Z"
     fill="#ffffff"
     id="path94857"
     style="fill:#ffffff;fill-opacity:1" />
</svg>
