<?xml version="1.0" encoding="UTF-8"?>
<!DOCTYPE svg PUBLIC "-//W3C//DTD SVG 1.1//EN" "http://www.w3.org/Graphics/SVG/1.1/DTD/svg11.dtd">
<svg xmlns="http://www.w3.org/2000/svg" version="1.1" width="809px" height="715px" style="shape-rendering:geometricPrecision; text-rendering:geometricPrecision; image-rendering:optimizeQuality; fill-rule:evenodd; clip-rule:evenodd" xmlns:xlink="http://www.w3.org/1999/xlink">
<g><path style="opacity:1" fill="#e6a82a" d="M 216.5,9.5 C 343.879,9.23778 471.213,9.73778 598.5,11C 630.333,64.1744 661.5,117.674 692,171.5C 718.613,216.95 745.446,262.284 772.5,307.5C 770.225,312.504 768.058,317.504 766,322.5C 755.089,339.751 743.756,356.751 732,373.5C 730.333,376.833 728.667,380.167 727,383.5C 712.681,401.483 698.014,419.15 683,436.5C 671.183,447.636 658.683,458.136 645.5,468C 632.474,476.342 618.307,481.508 603,483.5C 591.858,482.503 581.358,479.336 571.5,474C 559.146,465.986 548.313,456.152 539,444.5C 519.079,415.003 500.413,384.67 483,353.5C 469.872,331.369 455.539,310.036 440,289.5C 418.279,262.773 392.112,241.606 361.5,226C 355.009,224.126 348.675,221.793 342.5,219C 274.363,201.898 210.363,211.565 150.5,248C 127.19,263.972 105.69,282.139 86,302.5C 79.2639,311.959 71.5973,320.626 63,328.5C 57.4124,337.748 50.7457,346.081 43,353.5C 37,362.167 31,370.833 25,379.5C 18.9373,370.787 13.7706,361.621 9.5,352C 10.9192,347.741 13.0859,343.907 16,340.5C 17.5196,337.618 18.8529,334.618 20,331.5C 82.2127,226.702 143.546,121.702 204,16.5C 206.698,11.412 210.864,9.07863 216.5,9.5 Z"/></g>
<g><path style="opacity:1" fill="#25a8b4" d="M 290.5,324.5 C 308.946,324.526 325.946,329.359 341.5,339C 364.688,357.522 385.188,378.688 403,402.5C 424.174,432.341 446.841,461.008 471,488.5C 490.864,510.153 514.031,526.986 540.5,539C 592.351,557.294 639.018,548.628 680.5,513C 688.306,503.86 696.806,495.36 706,487.5C 715.052,476.115 723.719,464.449 732,452.5C 737.484,442.201 743.484,432.201 750,422.5C 754.791,411.044 760.458,400.044 767,389.5C 769.642,379.91 773.642,370.91 779,362.5C 782.147,354.053 785.48,345.72 789,337.5C 792,342.141 794.5,346.975 796.5,352C 789.101,364.528 782.268,377.361 776,390.5C 773.957,392.208 772.29,394.208 771,396.5C 714.912,494.76 658.079,592.594 600.5,690C 598.913,690.862 597.246,691.529 595.5,692C 467.833,692.667 340.167,692.667 212.5,692C 209.387,692.053 206.887,690.886 205,688.5C 172.735,633.328 140.401,577.995 108,522.5C 106.627,520.305 106.294,517.971 107,515.5C 126.604,482.621 145.937,449.621 165,416.5C 174.333,403.833 183.667,391.167 193,378.5C 200.833,370.667 208.667,362.833 216.5,355C 229.767,345.197 244.1,337.197 259.5,331C 269.849,328.232 280.182,326.065 290.5,324.5 Z"/></g>
</svg>
