<?xml version="1.0" encoding="UTF-8" standalone="no"?>
<!DOCTYPE svg PUBLIC "-//W3C//DTD SVG 1.1//EN" "http://www.w3.org/Graphics/SVG/1.1/DTD/svg11.dtd">
<svg xmlns="http://www.w3.org/2000/svg" version="1.1" viewBox="0 0 756 674" width="756.0pt" height="674.0pt">

<path d="M 374.00 0.36 C 413.55 -0.49 453.31 5.55 490.75 18.38 C 550.71 38.77 604.48 76.50 644.25 125.77 C 672.89 161.09 694.26 202.20 706.60 245.97 C 725.99 219.10 742.02 189.61 755.98 159.60 C 755.13 171.66 753.62 183.44 750.10 195.04 C 745.48 210.29 739.29 225.28 732.80 239.83 C 720.71 266.64 706.92 292.70 692.13 318.11 C 676.73 344.44 660.71 369.73 641.53 393.52 C 631.31 406.04 620.69 417.84 608.41 428.39 C 598.63 436.76 587.45 444.70 575.43 449.43 C 566.22 453.10 556.31 454.57 546.49 452.78 C 533.56 450.63 522.60 443.67 513.20 434.80 C 499.92 422.18 489.22 405.96 479.53 390.49 C 457.23 354.22 438.70 317.02 410.83 284.16 C 391.58 261.63 368.87 242.94 341.13 231.89 C 318.72 222.80 295.04 220.14 271.01 220.97 C 240.22 221.90 209.90 230.24 182.76 244.77 C 152.60 260.80 126.70 283.71 104.21 309.21 C 82.80 333.33 64.33 359.56 46.10 386.09 C 39.65 395.62 34.02 405.75 29.20 416.19 C 21.14 433.84 15.05 453.04 16.90 472.68 C 1.48 452.34 -2.63 425.97 2.05 401.23 C 7.38 372.84 23.45 346.68 41.87 324.86 C 42.81 323.67 43.63 322.61 43.66 321.02 C 45.57 282.31 54.20 243.90 69.14 208.14 C 85.36 169.25 108.96 133.53 138.25 103.25 C 166.27 74.27 199.56 50.32 235.96 32.98 C 278.98 12.43 326.35 1.33 374.00 0.36 Z" fill="#f2a41f" />
<path d="M 718.21 310.43 C 718.32 313.95 718.12 317.48 718.11 321.00 C 718.55 358.01 714.30 395.60 704.29 431.28 C 689.98 482.95 662.66 530.80 625.03 569.03 C 605.33 589.48 583.39 608.07 559.58 623.58 C 519.84 649.61 474.24 666.47 427.04 672.06 C 416.17 673.15 405.27 673.61 394.36 674.00 L 384.12 674.00 C 355.28 673.73 326.53 670.49 298.51 663.59 C 263.99 655.13 230.78 641.20 200.64 622.37 C 163.71 599.20 130.91 568.94 105.68 533.34 C 102.32 528.79 99.62 523.83 96.18 519.36 C 104.32 513.66 111.51 506.47 118.15 499.12 C 128.23 487.78 135.41 474.98 142.89 461.88 C 159.24 433.52 175.11 403.83 194.45 377.46 C 208.28 358.66 224.60 340.63 245.23 329.21 C 261.13 320.36 278.93 316.68 297.02 316.49 C 309.42 316.61 321.16 320.82 331.50 327.51 C 347.15 337.52 360.28 351.74 372.17 365.86 C 398.80 397.89 421.89 434.23 451.43 463.57 C 468.67 480.40 487.67 494.47 510.76 502.12 C 532.58 509.33 556.49 509.87 578.29 502.30 C 599.48 495.06 617.30 481.70 632.69 465.69 C 646.59 451.41 658.41 434.81 668.87 417.89 C 686.66 388.71 700.98 356.98 712.88 324.98 C 714.71 320.14 716.28 315.23 718.21 310.43 Z" fill="#00abc5" />
</svg>